<?xml version="1.0" encoding="UTF-8" standalone="no"?>
<!DOCTYPE svg PUBLIC "-//W3C//DTD SVG 1.1//EN" "http://www.w3.org/Graphics/SVG/1.1/DTD/svg11.dtd">
<svg width="100%" height="100%" viewBox="0 0 1784 1784" version="1.1" xmlns="http://www.w3.org/2000/svg" xmlns:xlink="http://www.w3.org/1999/xlink" xml:space="preserve" xmlns:serif="http://www.serif.com/" style="fill-rule:evenodd;clip-rule:evenodd;stroke-linecap:round;stroke-linejoin:round;stroke-miterlimit:1.5;">
    <g transform="matrix(1,0,0,1,-372.58,-256.437)">
        <g transform="matrix(2.50942,0,0,2.2981,2983.82,254.398)">
            <g transform="matrix(0.398499,0,0,0.435141,-967.427,36.4518)">
                <circle cx="708.041" cy="809.869" r="891.6" style="fill:rgb(186,162,118);"/>
            </g>
        </g>
        <g transform="matrix(2.50942,0,0,2.2981,2983.82,254.398)">
            <g transform="matrix(1,0,0,1,-131.104,53.7412)">
                <g transform="matrix(0.398499,0,0,0.435141,-989.859,-270.797)">
                    <path d="M1363.57,1495.61C1422.1,1493.29 1503.32,1351.32 1511.48,1292.58C1530.16,1158.1 1651.25,1179.6 1579.86,1347.87C1506.47,1520.88 1445.3,1548.84 1373.07,1584.96" style="stroke:black;stroke-width:8.33px;"/>
                </g>
                <g transform="matrix(0.398499,0,0,0.435141,-989.859,-270.797)">
                    <path d="M872.468,1294.82C872.468,1294.82 864.656,1202.82 922.937,1166.65C922.937,1166.65 912.889,860.168 1043.52,1133.49C1043.52,1133.49 1122.73,1121.68 1158.9,1139.76L1156.06,1157.6C1156.06,1157.6 1218.54,685.118 1370.64,1534.49C1370.64,1534.49 1388.52,1648.38 1366.42,1693.59L1091.68,1686.66L884.164,1387.22L872.468,1294.82Z" style="stroke:black;stroke-width:8.33px;"/>
                </g>
                <g transform="matrix(0.398499,0,0,0.435141,-989.859,-270.797)">
                    <path d="M1262.12,1429.54C1262.12,1429.54 1251.2,1534.21 1226.62,1569.71C1202.05,1605.2 1185.67,1625.23 1197.5,1645.25C1209.33,1665.28 1219.34,1679.84 1247.56,1675.29C1275.78,1670.74 1320.37,1556.06 1317.64,1502.35" style="fill:none;stroke:rgb(166,166,166);stroke-width:10.42px;"/>
                </g>
                <g transform="matrix(0.398499,0,0,0.435141,-989.859,-270.797)">
                    <path d="M896.164,1268.29C896.164,1268.29 856.116,1239.89 844.466,1236.98" style="fill:none;stroke:black;stroke-width:10.42px;"/>
                </g>
                <g transform="matrix(0.398499,0,0,0.435141,-998.274,-261.292)">
                    <path d="M896.164,1268.29C896.164,1268.29 866.31,1237.71 833.544,1238.44" style="fill:none;stroke:black;stroke-width:10.42px;"/>
                </g>
                <g transform="matrix(0.398499,0,0,0.435141,-989.859,-270.797)">
                    <path d="M1204.5,1336.02C1204.5,1336.02 1231.3,1319.71 1254.6,1318.55" style="fill:white;stroke:black;stroke-width:10.42px;"/>
                </g>
                <g transform="matrix(0.398499,0,0,0.435141,-980.351,-258.144)">
                    <path d="M1204.5,1336.02C1204.5,1336.02 1237.12,1319.71 1254.6,1323.21" style="fill:white;stroke:black;stroke-width:10.42px;"/>
                </g>
                <g transform="matrix(-0.0116623,-0.507701,0.634378,-0.0173753,-733.15,1144.65)">
                    <path d="M1699.18,305.893C1699.18,304.311 1698.18,302.818 1696.47,301.853C1694.76,300.887 1692.54,300.557 1690.45,300.96C1671.85,304.635 1657.9,319.779 1657.9,337.881C1657.9,355.791 1671.56,370.805 1689.86,374.675C1692.07,375.133 1694.44,374.806 1696.27,373.792C1698.09,372.778 1699.17,371.195 1699.17,369.514C1699.18,358.97 1699.18,348.426 1699.18,337.881L1699.18,305.893Z" style="fill:rgb(255,255,0);"/>
                    <clipPath id="_clip1">
                        <path d="M1699.18,305.893C1699.18,304.311 1698.18,302.818 1696.47,301.853C1694.76,300.887 1692.54,300.557 1690.45,300.96C1671.85,304.635 1657.9,319.779 1657.9,337.881C1657.9,355.791 1671.56,370.805 1689.86,374.675C1692.07,375.133 1694.44,374.806 1696.27,373.792C1698.09,372.778 1699.17,371.195 1699.17,369.514C1699.18,358.97 1699.18,348.426 1699.18,337.881L1699.18,305.893Z"/>
                    </clipPath>
                    <g clip-path="url(#_clip1)">
                        <g transform="matrix(1,0,-1.2326e-32,1,-0.900978,-0.165086)">
                            <path d="M1699.18,352.481C1697.28,352.88 1695.28,353.094 1693.2,353.094C1681.25,353.094 1668.97,345.931 1668.97,337.167C1668.97,328.402 1681.25,321.334 1693.2,321.334C1695.28,321.334 1697.28,321.548 1699.18,321.947L1699.18,352.481Z"/>
                        </g>
                    </g>
                    <path d="M1699.18,305.893C1699.18,304.311 1698.18,302.818 1696.47,301.853C1694.76,300.887 1692.54,300.557 1690.45,300.96C1671.85,304.635 1657.9,319.779 1657.9,337.881C1657.9,355.791 1671.56,370.805 1689.86,374.675C1692.07,375.133 1694.44,374.806 1696.27,373.792C1698.09,372.778 1699.17,371.195 1699.17,369.514C1699.18,358.97 1699.18,348.426 1699.18,337.881L1699.18,305.893Z" style="fill:none;stroke:black;stroke-width:4.48px;"/>
                </g>
                <g transform="matrix(0.027015,-0.507003,0.633506,0.0402487,-865.626,1123.03)">
                    <path d="M1699.18,304.451C1699.18,303.266 1698.46,302.143 1697.2,301.392C1695.95,300.641 1694.31,300.342 1692.72,300.576C1673,303.418 1657.9,319.049 1657.9,337.881C1657.9,356.55 1672.74,372.072 1692.21,375.106C1693.91,375.375 1695.68,375.066 1697.04,374.265C1698.39,373.464 1699.18,372.257 1699.18,370.982C1699.18,359.948 1699.18,348.915 1699.18,337.881L1699.18,304.451Z" style="fill:rgb(255,255,0);"/>
                    <clipPath id="_clip2">
                        <path d="M1699.18,304.451C1699.18,303.266 1698.46,302.143 1697.2,301.392C1695.95,300.641 1694.31,300.342 1692.72,300.576C1673,303.418 1657.9,319.049 1657.9,337.881C1657.9,356.55 1672.74,372.072 1692.21,375.106C1693.91,375.375 1695.68,375.066 1697.04,374.265C1698.39,373.464 1699.18,372.257 1699.18,370.982C1699.18,359.948 1699.18,348.915 1699.18,337.881L1699.18,304.451Z"/>
                    </clipPath>
                    <g clip-path="url(#_clip2)">
                        <g transform="matrix(1,0,-1.2326e-32,1,-0.900978,-0.165086)">
                            <path d="M1699.18,352.481C1697.28,352.88 1695.28,353.094 1693.2,353.094C1681.25,353.094 1669.83,346.051 1669.83,337.287C1669.83,328.523 1681.25,321.334 1693.2,321.334C1695.28,321.334 1697.28,321.548 1699.18,321.947L1699.18,352.481Z"/>
                        </g>
                    </g>
                    <path d="M1699.18,304.451C1699.18,303.266 1698.46,302.143 1697.2,301.392C1695.95,300.641 1694.31,300.342 1692.72,300.576C1673,303.418 1657.9,319.049 1657.9,337.881C1657.9,356.55 1672.74,372.072 1692.21,375.106C1693.91,375.375 1695.68,375.066 1697.04,374.265C1698.39,373.464 1699.18,372.257 1699.18,370.982C1699.18,359.948 1699.18,348.915 1699.18,337.881L1699.18,304.451Z" style="fill:none;stroke:black;stroke-width:4.48px;"/>
                </g>
                <g id="PC" transform="matrix(0.398499,0,0,0.435141,-998.67,86.387)">
                    <g transform="matrix(1,0,0,1,15.11,-826.847)">
                        <path d="M1306.11,1767.62L1221.61,1674.46C1220.43,1673.16 1220.21,1671.26 1221.06,1669.72C1221.9,1668.19 1223.64,1667.36 1225.36,1667.67L1412.29,1700.92C1413.98,1701.23 1415.3,1702.55 1415.61,1704.24C1415.91,1705.93 1415.12,1707.63 1413.64,1708.5L1311.21,1768.4C1309.54,1769.38 1307.41,1769.05 1306.11,1767.62Z" style="fill:rgb(166,166,166);stroke:black;stroke-width:10.42px;"/>
                    </g>
                    <g transform="matrix(1.01752,0,0,1.01752,-0.830034,-851.772)">
                        <path d="M712.99,1756.41C698.811,1756.21 686.719,1746.09 684.023,1732.17C668.722,1653.15 619.771,1400.35 602.81,1312.76C601.395,1305.45 603.402,1297.9 608.256,1292.26C613.11,1286.62 620.279,1283.51 627.713,1283.83C727.398,1288.01 1040.71,1301.15 1137.31,1305.2C1154.49,1305.92 1169.37,1317.35 1174.5,1333.77C1201.23,1419.36 1282.74,1680.32 1304.02,1748.45C1305.21,1752.26 1304.5,1756.41 1302.11,1759.61C1299.72,1762.81 1295.94,1764.67 1291.95,1764.62C1205.1,1763.39 814.782,1757.86 712.99,1756.41Z" style="fill:rgb(204,204,204);stroke:black;stroke-width:10.24px;"/>
                    </g>
                </g>
                <g transform="matrix(0.35843,-0.190165,0.174152,0.391389,-1191.88,-306.653)">
                    <path d="M535.979,1977.49C535.979,1977.49 519.124,1993.05 533.323,2002.11C533.323,2002.11 607.08,2043.81 565.683,2113.12C524.915,2181.38 661.977,2138.32 629.207,2029.36C629.207,2029.36 611.026,2042.04 601.702,2027.25C594.1,2015.19 602.493,2009.11 608.519,2004.97C608.533,2004.96 588.293,1972.38 568.32,1988.92C568.32,1988.92 548.193,1964.2 535.979,1977.49" style="fill:white;"/>
                </g>
            </g>
        </g>
    </g>
</svg>
